<svg id="Layer_1" data-name="Layer 1" xmlns="http://www.w3.org/2000/svg" viewBox="0 0 100 100">
  <defs>
    <style>
      .cls-1 {
        fill: rgb(70,70,70);
      }

      .cls-2 {
        fill: #fff;
      }

      .cls-3 {
        fill: #ffcb03;
      }
    </style>
  </defs>
  <rect class="cls-1" width="100" height="100" rx="13.34"/>
  <g id="togo">
    <path class="cls-2" d="M15.32,71.21c0-10.51,7.75-18.33,18.62-18.33,9.29,0,15.28,5.41,15.28,13.75C49.22,77.15,41.4,85,30.53,85,21.31,85,15.32,79.5,15.32,71.21ZM41.82,67c0-4.87-3-7.87-8.29-7.87-6.23,0-10.81,4.82-10.81,11.75,0,4.88,3,7.87,8.28,7.87C37.23,78.73,41.82,73.92,41.82,67Z"/>
    <path class="cls-2" d="M52,71.35C52,60.83,59.71,53,70.58,53c9.29,0,15.28,5.41,15.28,13.75,0,10.52-7.81,18.39-18.68,18.39C58,85.16,52,79.64,52,71.35Zm26.5-4.23c0-4.88-3-7.87-8.29-7.87-6.23,0-10.81,4.82-10.81,11.75,0,4.88,3,7.87,8.29,7.87C73.87,78.87,78.46,74.05,78.46,67.12Z"/>
    <path class="cls-3" d="M62.52,51.38c-6,0-10.39,4.63-10.39,11.29,0,4.69,2.88,7.57,8,7.57a9.89,9.89,0,0,0,8.41-4.39.38.38,0,0,0-.31-.59H60.8a5.9,5.9,0,0,1,5.9-5.91l10.48,0a.38.38,0,0,1,.38.4C77,69.29,69.68,76.28,59.64,76.28,50.77,76.28,45,71,45,63c0-10.1,7.46-17.61,17.9-17.61H79a6,6,0,0,1-6,6Z"/>
    <path class="cls-3" d="M37.64,76.28c-8.84,0-14.87-5.15-14.87-13.9a20.78,20.78,0,0,1,.39-4.08L28,34.49a.38.38,0,0,0-.37-.45h-13a.38.38,0,0,1-.37-.46l0-.1a8.48,8.48,0,0,1,8.3-6.77h7.17a.38.38,0,0,0,.37-.31l.93-4.71a8.48,8.48,0,0,1,8.32-6.84h.8a.38.38,0,0,1,.37.45l-2.24,11a.38.38,0,0,0,.37.46H51.74a.38.38,0,0,1,.37.45h0a8.49,8.49,0,0,1-8.26,6.79l-7.28,0a.38.38,0,0,0-.37.31l-4.79,23.9v0c-.1.79-.19,3.28-.19,4,0,3.59,1.85,5.83,6.12,5.83H53a.39.39,0,0,1,.27.11l7.34,7.45a.38.38,0,0,1-.27.64l-22.65.07"/>
  </g>
</svg>
