<?xml version="1.0" encoding="UTF-8" standalone="no"?>
<!-- Created with Inkscape (http://www.inkscape.org/) -->

<svg
   version="1.1"
   id="svg2"
   xml:space="preserve"
   width="426.66666"
   height="175.084"
   viewBox="0 0 426.66666 175.084"
   sodipodi:docname="togo-full-logo.ai"
   xmlns:inkscape="http://www.inkscape.org/namespaces/inkscape"
   xmlns:sodipodi="http://sodipodi.sourceforge.net/DTD/sodipodi-0.dtd"
   xmlns="http://www.w3.org/2000/svg"
   xmlns:svg="http://www.w3.org/2000/svg"><defs
     id="defs6"><clipPath
       clipPathUnits="userSpaceOnUse"
       id="clipPath16"><path
         d="M 0,131.313 H 320 V 0 H 0 Z"
         id="path14" /></clipPath></defs><sodipodi:namedview
     id="namedview4"
     pagecolor="#ffffff"
     bordercolor="#666666"
     borderopacity="1.0"
     inkscape:pageshadow="2"
     inkscape:pageopacity="0.0"
     inkscape:pagecheckerboard="0" /><g
     id="g8"
     inkscape:groupmode="layer"
     inkscape:label="togo-full-logo"
     transform="matrix(1.3333333,0,0,-1.3333333,0,175.084)"><g
       id="g10"><g
         id="g12"
         clip-path="url(#clipPath16)"><g
           id="g18"
           transform="translate(237.7514,33.9429)"><path
             d="m 0,0 c 0,9.107 -5.595,14.702 -15.47,14.702 -11.631,0 -20.189,-8.997 -20.189,-21.944 0,-9.107 5.595,-14.702 15.471,-14.702 C -8.558,-21.944 0,-12.947 0,0 m -49.484,-7.9 c 0,19.64 14.483,34.232 34.781,34.232 17.337,0 28.528,-10.094 28.528,-25.674 0,-19.639 -14.593,-34.342 -34.891,-34.342 -17.227,0 -28.418,10.313 -28.418,25.784"
             style="fill:#000000;fill-opacity:1;fill-rule:nonzero;stroke:none"
             id="path20" /></g><g
           id="g22"
           transform="translate(306.1755,33.6844)"><path
             d="m 0,0 c 0,9.107 -5.595,14.702 -15.47,14.702 -11.631,0 -20.189,-8.997 -20.189,-21.944 0,-9.107 5.595,-14.702 15.471,-14.702 C -8.558,-21.944 0,-12.947 0,0 m -49.484,-7.9 c 0,19.64 14.483,34.232 34.781,34.232 17.337,0 28.528,-10.094 28.528,-25.674 0,-19.639 -14.593,-34.342 -34.891,-34.342 -17.227,0 -28.418,10.313 -28.418,25.784"
             style="fill:#000000;fill-opacity:1;fill-rule:nonzero;stroke:none"
             id="path24" /></g><g
           id="g26"
           transform="translate(276.4093,63.0764)"><path
             d="m 0,0 c -11.176,0 -19.4,-8.645 -19.4,-21.087 0,-8.751 5.377,-14.128 14.867,-14.128 7.128,0 13.044,3.527 16.401,9.304 H -3.216 v 0 c 0,6.093 4.94,11.032 11.033,11.032 l 20.301,-0.032 c -0.683,-18.158 -14.481,-31.586 -33.495,-31.586 -16.554,0 -27.308,9.911 -27.308,24.778 0,18.873 13.918,32.895 33.423,32.895 h 30.003 v 0 C 30.741,5.02 25.762,0.024 19.606,0.002 Z"
             style="fill:#ffcb03;fill-opacity:1;fill-rule:nonzero;stroke:none"
             id="path28" /></g><g
           id="g30"
           transform="translate(229.9618,16.5795)"><path
             d="m 0,0 c -16.515,0 -27.767,9.619 -27.767,25.953 0,2.359 0.181,4.9 0.726,7.622 l 9.199,45.308 -26.006,0.021 0.332,1.612 c 1.448,7.031 7.637,12.076 14.816,12.076 h 14.544 l 1.955,9.934 c 1.395,7.093 7.613,12.207 14.842,12.207 H 5.587 L 1.05,92.592 h 26.134 l -0.287,-1.41 C 25.469,84.169 19.321,79.117 12.165,79.074 L -2.58,78.986 -11.655,33.757 c -0.181,-1.452 -0.362,-6.148 -0.362,-7.419 0,-6.714 3.448,-10.889 11.433,-10.889 h 29.46 L 43.964,0.133 Z"
             style="fill:#ffcb03;fill-opacity:1;fill-rule:nonzero;stroke:none"
             id="path32" /></g><g
           id="g34"
           transform="translate(176.7237,48.9483)"><path
             d="m 0,0 c 0,8.751 -5.378,14.128 -14.867,14.128 -11.176,0 -19.294,-8.645 -19.294,-21.087 0,-8.751 5.377,-14.128 14.866,-14.128 C -8.119,-21.087 0,-12.441 0,0 M 22.563,46.603 6.959,-31.631 H -5.588 l 1.159,5.799 c -4.744,-4.112 -10.859,-6.537 -18.24,-6.537 -13.918,0 -24.778,9.173 -24.778,24.778 0,19.189 13.602,32.895 31.632,32.895 8.75,0 15.498,-2.952 19.189,-8.751 l 6.01,30.05 z"
             style="fill:#000000;fill-opacity:1;fill-rule:nonzero;stroke:none"
             id="path36" /></g><g
           id="g38"
           transform="translate(83.3393,48.5246)"><path
             d="m 0,0 c 0,8.571 -5.266,13.837 -14.56,13.837 -10.946,0 -19,-8.467 -19,-20.652 0,-8.572 5.266,-13.837 14.56,-13.837 10.946,0 19,8.467 19,20.652 m -46.571,-7.435 c 0,18.484 13.63,32.217 32.734,32.217 16.316,0 26.848,-9.499 26.848,-24.163 0,-18.483 -13.734,-32.321 -32.837,-32.321 -16.213,0 -26.745,9.707 -26.745,24.267"
             style="fill:#000000;fill-opacity:1;fill-rule:nonzero;stroke:none"
             id="path40" /></g><g
           id="g42"
           transform="translate(129.4493,48.2813)"><path
             d="m 0,0 c 0,8.571 -5.266,13.837 -14.56,13.837 -10.946,0 -19,-8.467 -19,-20.652 0,-8.572 5.266,-13.837 14.56,-13.837 10.946,0 19,8.467 19,20.652 m -46.571,-7.435 c 0,18.484 13.63,32.217 32.734,32.217 16.316,0 26.848,-9.499 26.848,-24.163 0,-18.483 -13.734,-32.321 -32.837,-32.321 -16.213,0 -26.745,9.707 -26.745,24.267"
             style="fill:#000000;fill-opacity:1;fill-rule:nonzero;stroke:none"
             id="path44" /></g><g
           id="g46"
           transform="translate(27.8737,83.2469)"><path
             d="m 0,0 -4.833,-23.939 h 31.29 L 20.93,-36.303 H -7.193 l -6.069,-30.121 h -14.612 l 13.245,66.223 c 1.448,7.24 7.805,12.452 15.189,12.452 h 44.734 v 0 C 43.856,5.124 37.594,0 30.324,0 Z"
             style="fill:#000000;fill-opacity:1;fill-rule:nonzero;stroke:none"
             id="path48" /></g></g></g></g></svg>
