<svg xmlns="http://www.w3.org/2000/svg" xmlns:xlink="http://www.w3.org/1999/xlink" viewBox="0 10 110 110">
  <defs>
    <style>
      .leaf {
        fill: url(#radial-gradient);
      }

      .face {
        fill: #fff;
      }

      .top-leaf {
        fill: #006837;
        opacity: 0.8;
      }
  
      .text {
        fill: #006837;
        font-size: 76.97px;
        font-family: Helvetica-Light, Helvetica;
        font-weight: 300;
        letter-spacing: -0.02em;
      }

      
    </style>
    <radialGradient id="radial-gradient" cx="51.92" cy="92.8" fx="36.129527611312895" r="90.54" gradientUnits="userSpaceOnUse">
      <stop offset="0.15" stop-color="#008650"/>
      <stop offset="0.26" stop-color="#19914d"/>
      <stop offset="0.49" stop-color="#58ae45"/>
      <stop offset="0.67" stop-color="#8cc63f"/>
      <stop offset="0.74" stop-color="#98ca3a"/>
      <stop offset="0.88" stop-color="#b7d42e"/>
      <stop offset="1" stop-color="#d9e021"/>
    </radialGradient>
  </defs>
  <g id="leaf">
    <path class="leaf" d="M73.5,59a69.37,69.37,0,0,1,5.38-12.76,117.93,117.93,0,0,1-5.21-12.14A68.31,68.31,0,0,0,62.76,53.45,68.24,68.24,0,0,1,72.86,31.7a35.05,35.05,0,0,1-1.74-14.48A68.49,68.49,0,0,0,53.21,51.47c1.7-16.32,11.37-33.65,20.29-42,0,0-57.28,26.72-57.28,71a37.71,37.71,0,1,0,75.42,0c.09-9.65-6.38-21.16-12.11-32.86A68.37,68.37,0,0,0,73.5,59Z"/>
  </g>
  <g id="face">
    <path class="face" d="M80.44,95.68c-1,1.39-9.86,4.51-10.6,5.244s-1.35,9-1.1,9.65a37.84,37.84,0,0,1,.65,4.27,37.19,37.19,0,0,1-15.46,3.33,37.7,37.7,0,0,1-37.7-37.7,55.17,55.17,0,0,1,7.22-26.81v0c.59-.28,18.72-7.72,29.84,3.2,1.8,1.77,3.58,6.81,3.58,6.81,1.33.47,4.29,1.2,4.29,1.2a7,7,0,0,0-.7,3.2L71,69.92a1.78,1.78,0,0,1,1.42,2.14L71.3,76.85l2.37.43a1.75,1.75,0,0,1,1.41,2l-.27,1.48,1.5.24a1.63,1.63,0,0,1,1.36,1.85l-.42,2.83L79.86,88C81.49,89.16,82.3,93,80.44,95.68Z"/>
  </g>
  <g id="top-leaf">
    <path class="top-leaf" stroke=" #006837" stroke-width="0.5" d="M33.09,75.47c0-37.64,40.41-66,40.41-66s-57.28,26.72-57.28,71A37.69,37.69,0,0,0,66.63,116,41.23,41.23,0,0,1,33.09,75.47Z"/>
  </g>
  <!-- <text class="text" transform="translate(110 100)">LOMI SPA</text> -->
</svg>
