<svg id="svgDoc" xmlns="http://www.w3.org/2000/svg" viewBox="30 30 160 100">
<style>
      .shaker {
        fill: rgb(255, 134, 5);
      }
      .text {
        fill: rgb(255, 134, 5);
        font: italic 30px serif;
      }

      
    </style>

   <g class="shaker">
      <path
         d="M81.53,61.3v0h0l-5.81,65.79A3.16,3.16,0,0,1,72.57,130h-25a3.16,3.16,0,0,1-3.15-2.89L38.71,61.33h0v0Z" />
      <path
         d="M81.53,61.3H38.72C39.65,55.92,44,51.36,50,48.91V49H70.24v-.09C76.26,51.36,80.59,55.92,81.53,61.3Z" />
      <path
         d="M70.24,49H50v-.09l1.25-16.36A2.76,2.76,0,0,1,54,30H66.17a2.76,2.76,0,0,1,2.75,2.54l1.31,16.37Z" />
   </g>
   <text class="text" transform="translate(90 70)">Orange</text>
   <text class="text" transform="translate(90 100)">Bar</text>
</svg>