<svg id="logo" xmlns="http://www.w3.org/2000/svg" viewBox="0 0 379 176">

<defs>

<style>
.logo{
   fill:none;
   stroke:rgb(200, 200, 200);
   stroke-linecap:round;
   stroke-linejoin:round;
   stroke-width:16px;
   }
</style>

</defs>

<path class="logo" d="M68.37,228c0-32,22.39-58,50-58s50,26,50,58" transform="translate(-60.37 -161.96)"/>
<line class="logo" x1="8" y1="66" x2="8" y2="168"/>
<path class="logo" d="M168.37,232c0-34.24,22.39-62,50-62s50,27.76,50,62" transform="translate(-60.37 -161.96)"/>
<line class="logo" x1="108" y1="66" x2="108" y2="168"/>
<path class="logo" d="M373.37,230c32,0,58,22.39,58,50s-26,50-58,50" transform="translate(-60.37 -161.96)"/>
<line class="logo" x1="313" y1="168" x2="211" y2="168"/>
<path class="logo" d="M326.77,230c-19.22,0-34.8-13.43-34.8-30s15.58-30,34.8-30" transform="translate(-60.37 -161.96)"/><line class="logo" x1="266.4" y1="68" x2="313" y2="68"/><line class="logo" x1="266.4" y1="8" x2="313" y2="8"/>
<line class="logo" x1="208" y1="66" x2="208" y2="168"/>

</svg>